inDegrees=yes
name=ik_S46_A03_T02
DataType=double
version=3
OpenSimVersion=4.3-2021-08-27-4bc7ad9
endheader
time	pelvis_tilt	pelvis_list	pelvis_rotation	pelvis_tx	pelvis_ty	pelvis_tz	hip_flexion_r	hip_adduction_r	hip_rotation_r	knee_angle_r	knee_angle_r_beta	ankle_angle_r	subtalar_angle_r	mtp_angle_r	hip_flexion_l	hip_adduction_l	hip_rotation_l	knee_angle_l	knee_angle_l_beta	ankle_angle_l	subtalar_angle_l	mtp_angle_l	lumbar_extension	lumbar_bending	lumbar_rotation	arm_flex_r	arm_add_r	arm_rot_r	elbow_flex_r	pro_sup_r	wrist_flex_r	wrist_dev_r	arm_flex_l	arm_add_l	arm_rot_l	elbow_flex_l	pro_sup_l	wrist_flex_l	wrist_dev_l
0	0	0	0	0	0.9399999999999999	0	0	0	0	0	0	0	0	0	0	0	0	0	0	0	0	0	0	0	0	0	0	0	0	89.99999999963507	0	0	0	0	0	0	89.99999999869995	0	0
0.02	-0.5634638438139785	-6.00220071276048	-82.60465218439461	0	0.9399999999999999	0	-11.96868730170342	-3.378599462240222	-5.477543433708998	-0.8680477874626292	-0.01515029195587483	0	0	0	-9.494914465490712	-3.716119427926495	0.8253019366794206	-3.920105188634549	-0.06841874256618627	0	0	0	0	0	0	1.738122672988225	-1.738122672988225	0.3097410172497702	8.598627602213725	89.69025900058604	0	0	1.738122672988225	-1.738122672988225	0.3097410172497702	8.598627602213725	89.6902589997091	0	0
0.04	-0.5507503679034561	-5.998816753389887	-82.61908834651467	0	0.9399999999999999	0	-11.96106010624743	-3.390453492182106	-5.465326834867849	-0.7991271452527827	-0.01394739982672403	0	0	0	-9.506979494578637	-3.677800903559445	0.8320312377843091	-3.866786115336386	-0.06748814918302114	0	0	0	0	0	0	1.927215319788107	-1.927215319788107	0.3451017100209795	9.237450604439822	89.65489830990218	0	0	1.927215319788107	-1.927215319788107	0.3451017100209795	9.237450604439822	89.65489830903194	0	0
0.06	-0.5532864373430537	-6.010677951891346	-82.63041234665458	0	0.9399999999999999	0	-12.00199652791824	-3.393394112592963	-5.477312180360338	-0.808866707413729	-0.0141173872541352	0	0	0	-9.513870414173917	-3.677698692900665	0.8356925402849937	-3.834588906377753	-0.06692620187674038	0	0	0	0	0	0	2.11125704953505	-2.111257049535049	0.3795305104587413	9.861696863780359	89.62046951149712	0	0	2.11125704953505	-2.111257049535049	0.3795305104587413	9.861696863780359	89.62046951063333	0	0
0.08	-0.5668971169624486	-6.012918145386589	-82.66078074372176	0	0.9399999999999999	0	-12.00114139311755	-3.387337448725742	-5.455040524652405	-0.7796036564257028	-0.01360665066521516	0	0	0	-9.519788278740368	-3.685494047695433	0.7933402180903036	-3.812952839148685	-0.06654858126641029	0	0	0	0	0	0	2.278238236090834	-2.278238236090833	0.4106057374958971	10.39437264152765	89.58939428629233	0	0	2.278238236090834	-2.278238236090833	0.4106057374958971	10.39437264152765	89.58939428543424	0	0
0.1	-0.5652032416711225	-5.994091504405715	-82.68264736193026	0	0.9399999999999999	0	-12.04097839756441	-3.417171062380922	-5.499048208714681	-0.8291779431030976	-0.01447188519206326	0	0	0	-9.548416493333713	-3.687532042380123	0.7306325491022718	-3.792096818800343	-0.0661845750424688	0	0	0	0	0	0	2.360412569271992	-2.360412569271992	0.4258060324539743	10.66413217258517	89.5741939922291	0	0	2.360412569271992	-2.360412569271992	0.4258060324539743	10.66413217258517	89.57419399137382	0	0
0.12	-0.5638551823123116	-5.978991286234218	-82.71651844867735	0	0.9399999999999999	0	-12.06503863412523	-3.421856178931417	-5.502263592230483	-0.8424705123748601	-0.01470388429190494	0	0	0	-9.572534559686051	-3.658618731890189	0.7052202482849937	-3.764780766910716	-0.06570781999834918	0	0	0	0	0	0	2.513175246458879	-2.513175246458878	0.4541066225744295	11.14892084487425	89.54589340377532	0	0	2.513175246458879	-2.513175246458878	0.4541066225744295	11.14892084487425	89.54589340292534	0	0
0.14	-0.5704757974759486	-5.934043729396808	-82.71535753828864	0	0.9399999999999999	0	-12.06785051458959	-3.435850295939682	-5.549650224884211	-0.8822009860039762	-0.0153973118701098	0	0	0	-9.622826212251626	-3.634494576184081	0.6707967038680487	-3.816765549705477	-0.06661512561905186	0	0	0	0	0	0	2.569231289847554	-2.569231289847553	0.4643913501673725	11.3114047049095	89.53560867678652	0	0	2.569231289847554	-2.569231289847553	0.4643913501673725	11.3114047049095	89.53560867593845	0	0
0.16	-0.5676437217287241	-5.891860376678411	-82.72674212744805	0	0.9399999999999999	0	-12.07698799337557	-3.468606379766042	-5.570999958701441	-0.9435445577392295	-0.0164679591718233	0	0	0	-9.634446989609451	-3.62172197828178	0.6057593428763599	-3.857147413144333	-0.06731992209415062	0	0	0	0	0	0	2.650433200144425	-2.650433200144424	0.4793124443181694	11.55806755180575	89.52068758351263	0	0	2.650433200144425	-2.650433200144424	0.4793124443181694	11.55806755180575	89.52068758266732	0	0
0.18	-0.5727139582762487	-5.877133787574911	-82.73970993662884	0	0.9399999999999999	0	-12.13470257063494	-3.469931440796367	-5.587423264931764	-1.036412197004469	-0.0180888052455561	0	0	0	-9.658087382566475	-3.617113599248654	0.5963808548105287	-3.852590954578025	-0.06724039688993784	0	0	0	0	0	0	3.24695561896337	-3.24695561896337	0.5886492810511571	13.47523102456848	89.41135075320096	0	0	3.24695561896337	-3.24695561896337	0.5886492810511571	13.47523102456848	89.41135075237621	0	0
0.2	-0.5839170459399924	-5.849539093649083	-82.7396072436335	0	0.9399999999999999	0	-12.16850497601839	-3.472877183148833	-5.630134060955273	-1.121618514098993	-0.01957593602235387	0	0	0	-9.665361410309519	-3.622627401644972	0.6022578441703547	-3.852034412241746	-0.06723068339374304	0	0	0	0	0	0	3.777353654876607	-3.777353654876607	0.6851414857140805	15.2357989483608	89.31485855419582	0	0	3.777353654876607	-3.777353654876607	0.6851414857140805	15.2357989483608	89.31485855338914	0	0
0.22	-0.5984796584368018	-5.824435392757486	-82.7567892253341	0	0.9399999999999999	0	-12.1939519418361	-3.472280752294512	-5.640289818763515	-1.153942994510069	-0.02014010463452355	0	0	0	-9.68712844614087	-3.621232023801879	0.5953511388329735	-3.858725195175322	-0.06734745958547018	0	0	0	0	0	0	4.312210780504343	-4.312210780504343	0.7816396004689952	16.96555618156016	89.21836044508822	0	0	4.312210780504343	-4.312210780504343	0.7816396004689952	16.96555618156016	89.21836044429965	0	0
0.24	-0.6037625140487231	-5.832756002882029	-82.76003803431688	0	0.9399999999999999	0	-12.2737936905276	-3.480308494232795	-5.689770847296182	-1.194567691493491	-0.02084913935450928	0	0	0	-9.736822520689872	-3.622941749283406	0.6090201719991014	-3.909900839197344	-0.06824064307048303	0	0	0	0	0	0	4.426730605628906	-4.426730605628906	0.8023615696847417	17.35009450238795	89.19763847708639	0	0	4.426730605628906	-4.426730605628906	0.8023615696847417	17.35009450238795	89.19763847630171	0	0
0.26	-0.6038327705553028	-5.828949088471179	-82.75711108278006	0	0.9399999999999999	0	-12.32076351093983	-3.476951296171145	-5.73038245138018	-1.242650477061243	-0.02168834227619697	0	0	0	-9.756998965343083	-3.603081303522115	0.6555520708327662	-3.924029738645751	-0.06848723888554092	0	0	0	0	0	0	4.562229970095059	-4.562229970095059	0.8268503822156335	17.8088262230878	89.17314966598971	0	0	4.562229970095059	-4.562229970095059	0.8268503822156335	17.8088262230878	89.17314966520959	0	0
0.28	-0.5825137919871468	-5.796231267417679	-82.72963409432948	0	0.9399999999999999	0	-12.36714723065708	-3.524930126146887	-5.841772964298468	-1.301699590548411	-0.02271894372693183	0	0	0	-9.752540289478656	-3.603124206602229	0.6955182731006557	-3.961406040071515	-0.06913957840763836	0	0	0	0	0	0	4.687482798959681	-4.687482798959681	0.849383769757733	18.22214040432479	89.15061627976583	0	0	4.687482798959681	-4.687482798959681	0.849383769757733	18.22214040432479	89.15061627898993	0	0
0.3	-0.5456496059981699	-5.753758231930988	-82.68544078713876	0	0.9399999999999999	0	-12.32573623222539	-3.57685882453402	-5.958700709649836	-1.103379629594275	-0.01925760743585557	0	0	0	-9.655438606418272	-3.583883758147755	0.7451757200619534	-3.691324312334757	-0.06442576300915703	0	0	0	0	0	0	4.822074232102105	-4.822074232102105	0.8738036270843009	18.7277545300358	89.12619642387119	0	0	4.822074232102105	-4.822074232102105	0.8738036270843009	18.7277545300358	89.12619642309987	0	0
0.32	-0.4810269885387503	-5.800065816667312	-82.60097344189873	0	0.9399999999999999	0	-12.55233201136362	-3.625155519371826	-6.110257226871623	-1.445718820613366	-0.02523255347775251	0	0	0	-9.787080563471013	-3.530656633252891	0.8535822468638137	-3.934590199224403	-0.06867155369316547	0	0	0	0	0	0	4.885783831067008	-4.885783831067008	0.8856704194849584	19.04863910004514	89.11432963217131	0	0	4.885783831067008	-4.885783831067008	0.8856704194849584	19.04863910004514	89.11432963140237	0	0
0.34	-0.394494227222953	-5.845074270719246	-82.48220952908531	0	0.9399999999999999	0	-12.61913119570317	-3.685355015842003	-6.240028759067526	-1.399641970397777	-0.02442836073254222	0	0	0	-9.835424618723124	-3.470928574555831	0.9781567453424992	-3.927755657483131	-0.0685522684369153	0	0	0	0	0	0	5.02395424580116	-5.02395424580116	0.9104444203333923	19.50924288790496	89.08955563277109	0	0	5.02395424580116	-5.02395424580116	0.9104444203333923	19.50924288790496	89.08955563200681	0	0
0.36	-0.3724250492586278	-5.857163246971452	-82.41567226463857	0	0.9399999999999999	0	-12.71398193703641	-3.679103195621035	-6.367873529889113	-1.421504573912657	-0.02480993514693495	0	0	0	-9.816091356721616	-3.438902163186826	1.027576543907363	-3.893565789400918	-0.06795554266805814	0	0	0	0	0	0	5.070424133751281	-5.070424133751281	0.9187496643769968	19.67296716834336	89.08125038921276	0	0	5.070424133751281	-5.070424133751281	0.9187496643769968	19.67296716834336	89.08125038845	0	0
0.3800000000000001	-0.3207665389932026	-5.859482508352782	-82.30348420148748	0	0.9399999999999999	0	-12.8090934387102	-3.742956243909429	-6.531600664470712	-1.400125041997629	-0.02443679192248252	0	0	0	-9.839841125007723	-3.374547477569549	1.142831609908812	-3.938274802454193	-0.06873586215115493	0	0	0	0	0	0	5.174989313000423	-5.174989313000423	0.9374445864206711	20.02027366517583	89.06255546826124	0	0	5.174989313000423	-5.174989313000423	0.9374445864206711	20.02027366517583	89.06255546750204	0	0
0.4000000000000001	-0.2618856436031679	-5.91183412867692	-82.17148972826777	0	0.9399999999999999	0	-12.9025053629742	-3.780765651793229	-6.619288256141977	-1.420511433970511	-0.02479260158501145	0	0	0	-9.88962332196296	-3.326923560145765	1.295261077957945	-3.900671969384289	-0.06807956890600729	0	0	0	0	0	0	5.327926522833126	-5.327926522833126	0.9649178657358558	20.56458890168474	89.03508219055317	0	0	5.327926522833126	-5.327926522833126	0.9649178657358558	20.56458890168474	89.03508218979906	0	0
0.4200000000000001	-0.2534521182339382	-5.906265233674832	-82.05108297776428	0	0.9399999999999999	0	-12.91776293270187	-3.810444671814494	-6.650361632036292	-1.393922725963052	-0.0243285410864299	0	0	0	-9.883610342822697	-3.306704435666792	1.422467096415298	-3.883429425695716	-0.06777862974722272	0	0	0	0	0	0	5.331433074493641	-5.331433074493641	0.9655738788834399	20.5837320585254	89.03442617744437	0	0	5.331433074493641	-5.331433074493641	0.9655738788834399	20.5837320585254	89.03442617669037	0	0
0.4400000000000001	-0.2728366596117973	-5.907437292083848	-81.95793480247761	0	0.9399999999999999	0	-12.92250697843255	-3.814388516433511	-6.647829323914388	-1.385148884053912	-0.02417540865706595	0	0	0	-9.885072463759876	-3.289272682120908	1.426319220951638	-3.885647877982974	-0.06781734904393377	0	0	0	0	0	0	5.331848939879739	-5.331848939879739	0.9656503246925533	20.58587171081878	89.03434973163976	0	0	5.331848939879739	-5.331848939879739	0.9656503246925533	20.58587171081878	89.03434973088579	0	0
0.4600000000000001	-0.2566329262501937	-5.931520801354512	-81.80822877809139	0	0.9399999999999999	0	-12.95181002569761	-3.851407998565405	-6.705258139072537	-1.306531950504137	-0.02280328431880077	0	0	0	-9.903055466438762	-3.300484962964454	1.59073698117511	-3.894011035563811	-0.06796331367958251	0	0	0	0	0	0	5.334235773927441	-5.334235773927441	0.9660952333968531	20.59873225583233	89.03390482296179	0	0	5.334235773927441	-5.334235773927441	0.9660952333968531	20.59873225583233	89.03390482220784	0	0
0.4800000000000001	-0.2892691310663601	-5.934117477668064	-81.72854721921613	0	0.9399999999999999	0	-12.95733224773493	-3.844418864051251	-6.706291976290096	-1.286102691459692	-0.02244672648473238	0	0	0	-9.909600470481585	-3.242917408463617	1.553192606780199	-3.902712448332662	-0.06811518198197404	0	0	0	0	0	0	5.33476915060942	-5.33476915060942	0.9661938403141256	20.60152780503337	89.03380621605034	0	0	5.33476915060942	-5.33476915060942	0.9661938403141256	20.60152780503337	89.03380621529641	0	0
